# xmcd
# 
# Track frame offsets:
#     182
#     13957
#     28127
#     46550
#     63602
#     83207
#     95995
#     105055
#     122282
#     138277
#     152032
#     168347
#     185955
# 
# Disc length: 2663
# 
# Revision: 5
# Processed by: cddbd v1.5.2PL0 Copyright (c) Steve Scherf et al.
# Submitted via: fre:ac v1.0.31
# 
DISCID=a60a650d
DTITLE=Waylon Jennings - Right For The Time
DYEAR=1996
DGENRE=Country
TTITLE0=Wbpt
TTITLE1=Cactus Texas
TTITLE2=The Most Sensible Thing
TTITLE3=The Boxer
TTITLE4=Hittin' The Bottle Again
TTITLE5=Wastin' Time
TTITLE6=Kissing You Goodbye
TTITLE7=Carnival Song
TTITLE8=Out Of Jail
TTITLE9=Lines
TTITLE10=Deep In The West
TTITLE11=Right For The Time
TTITLE12=Living Legends Pt Ii
EXTD=
EXTT0=
EXTT1=
EXTT2=
EXTT3=
EXTT4=
EXTT5=
EXTT6=
EXTT7=
EXTT8=
EXTT9=
EXTT10=
EXTT11=
EXTT12=
PLAYORDER=
